<?xml version="1.0" encoding="UTF-8" standalone="no"?>
<!-- Generator: Adobe Illustrator 16.0.0, SVG Export Plug-In . SVG Version: 6.00 Build 0)  -->

<svg
   xmlns:dc="http://purl.org/dc/elements/1.1/"
   xmlns:cc="http://creativecommons.org/ns#"
   xmlns:rdf="http://www.w3.org/1999/02/22-rdf-syntax-ns#"
   xmlns:svg="http://www.w3.org/2000/svg"
   xmlns="http://www.w3.org/2000/svg"
   xmlns:sodipodi="http://sodipodi.sourceforge.net/DTD/sodipodi-0.dtd"
   xmlns:inkscape="http://www.inkscape.org/namespaces/inkscape"
   version="1.1"
   id="Capa_1"
   x="0px"
   y="0px"
   width="40"
   height="53.333332"
   viewBox="0 0 40 53.333332"
   xml:space="preserve"
   sodipodi:docname="user_icon.svg"
   inkscape:version="0.92.4 (fd57863, 2020-04-02)"><metadata
   id="metadata3887"><rdf:RDF><cc:Work
       rdf:about=""><dc:format>image/svg+xml</dc:format><dc:type
         rdf:resource="http://purl.org/dc/dcmitype/StillImage" /><dc:title></dc:title></cc:Work></rdf:RDF></metadata><defs
   id="defs3885" /><sodipodi:namedview
   pagecolor="#ffffff"
   bordercolor="#666666"
   borderopacity="1"
   objecttolerance="10"
   gridtolerance="10"
   guidetolerance="10"
   inkscape:pageopacity="0"
   inkscape:pageshadow="2"
   inkscape:window-width="1530"
   inkscape:window-height="960"
   id="namedview3883"
   showgrid="false"
   inkscape:zoom="1.6235768"
   inkscape:cx="88.727887"
   inkscape:cy="-29.459986"
   inkscape:window-x="70"
   inkscape:window-y="27"
   inkscape:window-maximized="1"
   inkscape:current-layer="Capa_1"
   fit-margin-top="0"
   fit-margin-left="0"
   fit-margin-right="0"
   fit-margin-bottom="0" />
<g
   id="g3850"
   style="fill:#800080"
   transform="matrix(0.55596481,0,0,0.54582173,-7.1624946,0)">
	<path
   d="M 48.855,0 C 29.021,0 12.883,16.138 12.883,35.974 c 0,5.174 1.059,10.114 3.146,14.684 8.994,19.681 26.238,40.46 31.31,46.359 0.38,0.441 0.934,0.695 1.517,0.695 0.583,0 1.137,-0.254 1.517,-0.695 5.07,-5.898 22.314,-26.676 31.311,-46.359 2.088,-4.57 3.146,-9.51 3.146,-14.684 C 84.828,16.138 68.69,0 48.855,0 Z m 0,54.659 c -10.303,0 -18.686,-8.383 -18.686,-18.686 0,-10.304 8.383,-18.687 18.686,-18.687 10.303,0 18.686,8.383 18.686,18.687 0.001,10.303 -8.382,18.686 -18.686,18.686 z"
   id="path3848"
   style="fill:#800080"
   inkscape:connector-curvature="0" />
</g>
<g
   id="g3852"
   transform="translate(-12.883,-44.378667)">
</g>
<g
   id="g3854"
   transform="translate(-12.883,-44.378667)">
</g>
<g
   id="g3856"
   transform="translate(-12.883,-44.378667)">
</g>
<g
   id="g3858"
   transform="translate(-12.883,-44.378667)">
</g>
<g
   id="g3860"
   transform="translate(-12.883,-44.378667)">
</g>
<g
   id="g3862"
   transform="translate(-12.883,-44.378667)">
</g>
<g
   id="g3864"
   transform="translate(-12.883,-44.378667)">
</g>
<g
   id="g3866"
   transform="translate(-12.883,-44.378667)">
</g>
<g
   id="g3868"
   transform="translate(-12.883,-44.378667)">
</g>
<g
   id="g3870"
   transform="translate(-12.883,-44.378667)">
</g>
<g
   id="g3872"
   transform="translate(-12.883,-44.378667)">
</g>
<g
   id="g3874"
   transform="translate(-12.883,-44.378667)">
</g>
<g
   id="g3876"
   transform="translate(-12.883,-44.378667)">
</g>
<g
   id="g3878"
   transform="translate(-12.883,-44.378667)">
</g>
<g
   id="g3880"
   transform="translate(-12.883,-44.378667)">
</g>
<ellipse
   style="fill:#ffffff;stroke-width:0.59740359"
   id="path4027"
   cx="19.866259"
   cy="19.340532"
   rx="15.289032"
   ry="15.010098" /><path
   style="fill:#800080;stroke-width:0.04508104"
   id="path4582"
   d="m 19.929409,17.706003 c 1.651639,0 3.081827,-0.506655 4.250388,-1.506289 1.168563,-0.999466 1.760937,-2.222379 1.760937,-3.635178 0,-1.41232 -0.592374,-2.6353918 -1.761126,-3.6351886 -1.168752,-0.999296 -2.598751,-1.5059552 -4.250199,-1.5059552 -1.651829,0 -3.081637,0.5066592 -4.250199,1.5061192 -1.168562,0.9994704 -1.761125,2.2225406 -1.761125,3.6350246 0,1.412799 0.592563,2.635876 1.761316,3.635342 1.168752,0.999306 2.598751,1.506125 4.250008,1.506125 z m 0,0"
   inkscape:connector-curvature="0" /><path
   style="fill:#800080;stroke-width:0.04508104"
   id="path4584"
   d="m 30.447609,23.837655 c -0.0337,-0.415944 -0.101867,-0.869669 -0.202219,-1.348803 -0.101293,-0.482714 -0.231732,-0.939048 -0.387869,-1.356126 -0.16128,-0.431091 -0.380636,-0.856804 -0.651783,-1.264772 -0.281429,-0.423428 -0.611986,-0.792147 -0.982909,-1.095547 -0.387872,-0.317417 -0.86276,-0.572612 -1.411909,-0.758764 -0.547247,-0.185169 -1.153711,-0.27898 -1.802446,-0.27898 -0.254773,0 -0.501166,0.0894 -0.977008,0.354385 -0.292854,0.163343 -0.635406,0.352258 -1.017754,0.561215 -0.326939,0.178161 -0.769839,0.345089 -1.316894,0.496233 -0.533725,0.147711 -1.07564,0.222619 -1.610509,0.222619 -0.534868,0 -1.076593,-0.07492 -1.610891,-0.222619 -0.546484,-0.15098 -0.989382,-0.317908 -1.315941,-0.496069 -0.378731,-0.206997 -0.721473,-0.395917 -1.018707,-0.561543 -0.475269,-0.264974 -0.721854,-0.35438 -0.976625,-0.35438 -0.648926,0 -1.255201,0.09397 -1.802256,0.279298 -0.548768,0.18583 -1.023848,0.441024 -1.412099,0.758768 -0.370733,0.303565 -0.70148,0.67212 -0.982529,1.095384 -0.270957,0.407968 -0.490312,0.833518 -0.651782,1.264936 -0.155948,0.417078 -0.28638,0.873248 -0.3876799,1.355962 -0.1003472,0.478479 -0.1685152,0.932368 -0.2022184,1.349288 -0.033128,0.408449 -0.049888,0.832379 -0.049888,1.260525 0,1.11429 0.4141473,2.016371 1.2308273,2.681644 0.806588,0.656488 1.87385,0.989538 3.171703,0.989538 h 12.017315 c 1.297854,0 2.364735,-0.332887 3.171514,-0.989538 0.816869,-0.664782 1.231016,-1.567026 1.231016,-2.681796 -1.95e-4,-0.430118 -0.01713,-0.854364 -0.05045,-1.260858 z m 0,0"
   inkscape:connector-curvature="0" /></svg>