<svg id="Capa_1" data-name="Capa 1" xmlns="http://www.w3.org/2000/svg" viewBox="0 0 1024 1024"><defs><style>.cls-1{fill:#ffce00;}.cls-2{fill:#e84e1b;}.cls-3{fill:#fff;}</style></defs><title>logo icono</title><rect class="cls-1" x="-23.71" y="-19.66" width="1068.49" height="1068.49"/><path class="cls-2" d="M783.39,675.13c-18.08,3-30.61-14.22-32.66-26.52-3.5-21,14.7-41.09,27-43.14,10.12-1.69,21.69,9.76,30.37,17.23,4.46,4.46,7.71,10.6,8.56,15.66C819.54,655.73,801.46,672.12,783.39,675.13Zm15.3-104.37c7.23-1.2,10.85-6.26,13.86-19.4C858.35,349,895,261.16,895,261.16c-2.41-14.46-29.77-27-51.46-23.38-7.23,1.21-14.22,3.86-18,8.19-8.92,13.38-39.16,103.89-55.08,307.19C770,563.65,787.84,572.57,798.69,570.76Z"/><path class="cls-3" d="M665.9,518.77c16.29-13.37,43.85-3.84,38.59,14.88-9.43,35.23-27.71,65.09-53.73,90.66s-54.39,38-86.2,39.49c-40.6.51-67.22-22.21-79.88-69.24Q444.4,664.2,386.8,664.93c-74.61.94-112.83-71-114.13-175.26-.56-45,6.58-87.87,20.32-129.74,28.58-83.76,96.85-152.66,184.63-153.76,27.43-.34,51.68,8.13,71.65,25.44,21.07,17.3,28,42.46,21.79,74.36q21.56,12.9,7.45,69c-38.85,139.85-39.85,235.34,8.43,234.74C615.46,609.38,641.42,579.43,665.9,518.77ZM459.63,259.07c-27.43.35-50.13,28.06-67,82A579.77,579.77,0,0,0,369.51,511.5c.85,68,13.35,101.89,36.39,101.6,31.87,4,66.19-60.1,79.42-230.35-14.31-3.12-22.11-12.9-21.22-29.37C489,325.65,504.61,258.51,459.63,259.07Z"/><path class="cls-2" d="M844.57,754.62c-1-8.36-5.78-16.68-13.41-23.42C815,716.93,793,713.79,769.93,711.6c-106.46-10.1-232.26-19.83-358.18-15.46-63.57,2.21-121.75,7.69-177.86,16.75-1.93.31-4.29.66-7,1.06-27.41,4-84.45,12.43-95.84,39.87-4.32,10.41-1.77,22.08,7.59,34.7,3,4,6.23,6.28,9.91,6.87a12.26,12.26,0,0,0,1.95.16c5.92,0,10.3-4.41,13.59-7.71L165,787c10.39-10.3,25.76-14.1,41.92-17.38A1497.76,1497.76,0,0,1,655.43,747.2c44.39,4.48,96.31,11.56,144.85,30.16,8.94,3.43,21.19,8.12,31.91,2.62,7.6-3.9,12.54-12.57,12.57-22.07h0A26.58,26.58,0,0,0,844.57,754.62Z"/></svg>