<svg id="Capa_1" data-name="Capa 1" xmlns="http://www.w3.org/2000/svg" viewBox="0 0 1080 1080"><defs><style>.cls-1{fill:#fff;}.cls-2{fill:#e84e1b;}</style></defs><title>logo aca cerca </title><path class="cls-1" d="M301.28,457.14c6.08-5,16.37-1.43,14.41,5.56a73.35,73.35,0,0,1-20.06,33.85c-9.71,9.54-20.31,14.18-32.18,14.74-15.16.19-25.1-8.29-29.82-25.85q-15,26-36.54,26.27c-27.85.35-42.12-26.51-42.61-65.43a147.88,147.88,0,0,1,7.59-48.44c10.67-31.27,36.16-57,68.93-57.4a38.94,38.94,0,0,1,26.75,9.5c7.87,6.46,10.44,15.85,8.13,27.76q8,4.82,2.78,25.78c-14.5,52.21-14.88,87.86,3.15,87.64C282.44,491,292.14,479.79,301.28,457.14Zm-77-97c-10.24.13-18.71,10.48-25,30.63a216.49,216.49,0,0,0-8.63,63.61c.32,25.4,5,38,13.59,37.93,11.9,1.49,24.71-22.43,29.65-86-5.34-1.16-8.25-4.81-7.92-11C235.23,385,241.06,360,224.27,360.18Z"/><path class="cls-1" d="M344.1,376.71a200.64,200.64,0,0,0-9,62.8c.5,39.73,16.33,60.43,33.94,59.8,18-1.45,38.66-21,47.7-51.81,6.9-5,16.37-1.43,15.22,4.73-17.42,81.34-129.88,97.91-131.16-4.5-.39-31.13,6.23-58.26,20.29-81.37,14-23.53,30.7-35.21,49.95-35.45,14.34-.18,23.46,8.72,27,26.7q4.63,26.37-7.94,53Q379.83,432.8,364.47,433c-6.55.08-9.86-2.33-9.5-6,0-1.64,26.43-81.45,12.5-81.28C358.46,345.8,350.81,356.14,344.1,376.71Z"/><path class="cls-1" d="M556.88,453.93c6.08-5,16.37-1.43,14.41,5.56a73.35,73.35,0,0,1-20.06,33.85c-9.71,9.55-20.31,14.18-32.18,14.74-15.16.19-25.1-8.29-29.82-25.85q-15,26-36.54,26.27c-27.85.35-42.12-26.51-42.61-65.43a147.89,147.89,0,0,1,7.59-48.44c10.67-31.27,36.16-57,68.93-57.4a38.94,38.94,0,0,1,26.75,9.5c7.87,6.46,10.44,15.85,8.13,27.76q8,4.82,2.78,25.78c-14.5,52.21-14.88,87.86,3.15,87.64C538,487.77,547.74,476.58,556.88,453.93Zm-77-97c-10.24.13-18.71,10.48-25,30.63a216.49,216.49,0,0,0-8.63,63.61c.32,25.4,5,38,13.59,37.93,11.9,1.49,24.71-22.43,29.65-86-5.34-1.16-8.25-4.81-7.92-11C490.83,381.83,496.67,356.77,479.87,357Zm24.07-106.41c4.85-5.39,10.17-5.86,16.36-2.25s9.54,9.3,9.23,17.09l-65.3,52.44c-7.72,5.42-16,1-14.83-6.78C475.26,283.29,493.44,263,503.94,250.57Z"/><path class="cls-1" d="M183.58,596.63a231,231,0,0,0-10.41,72.29c.57,45.74,18.79,69.57,39.07,68.84,20.73-1.67,44.5-24.14,54.91-59.64,7.95-5.76,18.84-1.65,17.52,5.44-20,93.64-149.51,112.71-151-5.18-.45-35.84,7.18-67.06,23.35-93.68,16.17-27.09,35.34-40.53,57.5-40.81,16.5-.21,27,10,31,30.74q5.33,30.35-9.14,61Q224.72,661.2,207,661.42c-7.55.09-11.35-2.69-10.93-6.94,0-1.89,30.43-93.77,14.39-93.57C200.11,561,191.3,572.95,183.58,596.63Z"/><path class="cls-1" d="M309.5,709.19q9.6,32.42,34.36,32.11c20.75-.26,41.64-26.93,53.9-64.82,12.18-6.76,18.4.24,17.52,5.44-3.08,17.49-12.3,34.58-28.59,52.24s-33.63,26.36-52,26.59c-39.14.49-70.19-31.19-70.9-87.31-.63-50.46,11.15-88.81,27.44-106C308,549.79,323,542.53,336.65,542.36c26.41-.33,39.36,17,39.68,42.89C376.93,632.41,348.25,677.1,309.5,709.19Zm-4-21.17c24.62-30,36.9-66,36.39-107-.12-9.9-2.55-15.06-7.73-15-9,.11-30.26,32-29.29,109.32C304.91,681.42,305,685.66,305.46,688Z"/><path class="cls-1" d="M451.24,615.91c-9.43.59-16,1.14-20.27,1.2-2,30.21-9.17,58.6-22,85.17-6,11.39-16.4,8.69-20.29-.69q15.15-33.44,18.71-88c-14.68-5-22.39-18.11-22.66-39.33a60.69,60.69,0,0,1,10.87-35.51c7.4-11.41,17.74-14.37,30.55-8.4,2.66,24,4.77,41.92,5.38,52.76,28.3.12,47.59-3.43,58.35-10.64q14.16.53,10.1,15.44c-8.58,30.29-13.44,56.29-15.54,77.54-3.23,43,2.61,58,13.46,57.84,12.26-.15,23.42-13,33.94-39.1,7-5.75,18.84-1.65,16.59,6.4-8.58,30.29-33.27,55.13-60.15,55.46C466.08,746.37,434.63,720.83,451.24,615.91Z"/><path class="cls-1" d="M581.1,591.65a231,231,0,0,0-10.41,72.29c.57,45.74,18.79,69.57,39.07,68.84,20.73-1.67,44.5-24.14,54.91-59.64,7.95-5.76,18.84-1.65,17.52,5.44-20.05,93.64-149.51,112.71-151-5.18-.45-35.84,7.18-67.06,23.35-93.68,16.17-27.09,35.34-40.53,57.5-40.81,16.5-.21,27,10,31,30.74q5.33,30.35-9.14,61-11.71,25.61-29.39,25.84c-7.55.09-11.35-2.69-10.93-6.94,0-1.89,30.43-93.77,14.39-93.57C597.64,556.07,588.82,568,581.1,591.65Z"/><path class="cls-1" d="M826.05,680.55c7-5.75,18.84-1.65,16.59,6.4a84.44,84.44,0,0,1-23.09,39c-11.18,11-23.38,16.33-37,17-17.45.22-28.89-9.54-34.33-29.75q-17.31,29.93-42.07,30.24C674,743.77,657.61,712.84,657,668a170.24,170.24,0,0,1,8.73-55.76c12.28-36,41.63-65.61,79.35-66.08,11.79-.15,22.21,3.5,30.79,10.93,9.05,7.43,12,18.24,9.36,32q9.27,5.54,3.2,29.67c-16.7,60.11-17.13,101.15,3.62,100.89C804.37,719.49,815.53,706.62,826.05,680.55ZM737.4,568.94c-11.79.15-21.54,12.06-28.8,35.26a249.21,249.21,0,0,0-9.93,73.23c.37,29.24,5.74,43.79,15.64,43.67,13.7,1.72,28.45-25.82,34.13-99-6.15-1.34-9.5-5.54-9.12-12.62C750,597.55,756.73,568.69,737.4,568.94Z"/><path class="cls-2" d="M900.25,809.91c0,5.27-2.61,10.63-7.28,13-6.33,3.25-13.92.45-20.56-2.1C838,807.65,801.17,802,764.5,798.34a1112.83,1112.83,0,0,0-332.33,16.58c-11.81,2.4-24.26,5.34-32.82,13.83-2.55,2.53-5.39,5.77-8.93,5.2-2.07-.33-3.69-1.94-4.94-3.62-28.88-38.95,48.6-46.88,68-50A1048.79,1048.79,0,0,1,584.32,768c88.14-3.06,176.31,3.08,264,11.41,15.26,1.45,31.62,3.42,43.11,13.57,4.42,3.9,8,9.11,8.68,15A15.83,15.83,0,0,1,900.25,809.91Z"/><path class="cls-2" d="M873.48,760.58c-11.8,2-20-9.29-21.33-17.32-2.28-13.69,9.6-26.83,17.63-28.17,6.61-1.11,14.16,6.37,19.83,11.25a20.42,20.42,0,0,1,5.59,10.23C897.08,747.91,885.28,758.61,873.48,760.58Zm10-68.15c4.72-.79,7.08-4.09,9.05-12.67,29.9-132.13,53.83-189.51,53.83-189.51-1.57-9.44-19.44-17.63-33.6-15.27-4.72.79-9.29,2.52-11.73,5.35-5.82,8.74-25.57,67.84-36,200.6C864.74,687.78,876.39,693.6,883.47,692.42Z"/></svg>