<svg height="512pt" viewBox="-91 0 512 512" width="512pt" xmlns="http://www.w3.org/2000/svg"><g fill-rule="evenodd"><path d="m330.875 182.167969v277.796875c0 11.324218-9.28125 20.585937-20.613281 20.585937h-289.675781c-11.332032 0-20.58203175-9.261719-20.58203175-20.585937v-277.796875zm0 0" fill="#e6e6e6"/><path d="m330.875 20.582031v161.585938l-27.804688 7.714843-140.03125 38.859376-136.023437-38.859376-27.01171875-7.714843v-161.585938c0-11.320312 9.24999975-20.582031 20.58203175-20.582031h289.675781c11.332031 0 20.613281 9.261719 20.613281 20.582031zm0 0" fill="#e6e6e6"/><path d="m310.203125 480.550781-38.777344-18.632812-38.808593 18.632812v23.417969c0 4.410156 3.621093 8.03125 8 8.03125h61.585937c4.410156 0 8-3.621094 8-8.03125zm0 0" fill="#b3b3b3"/><path d="m256.503906 480.550781h-23.886718v23.417969c0 4.410156 3.621093 8.03125 8 8.03125h23.886718c-4.40625 0-8-3.621094-8-8.03125zm0 0" fill="#888b99"/><path d="m101.007812 480.550781-38.78125-18.632812-38.808593 18.632812v23.417969c0 4.410156 3.621093 8.03125 8.03125 8.03125h61.554687c4.410156 0 8.003906-3.621094 8.003906-8.03125zm0 0" fill="#b3b3b3"/><path d="m47.304688 480.550781h-23.882813v23.417969c0 4.410156 3.617187 8.03125 8.027344 8.03125h23.859375c-4.410156 0-8.003906-3.621094-8.003906-8.03125zm0 0" fill="#888b99"/><path d="m281.996094 283.289062v-49.234374c0-3.972657-3.238282-7.214844-7.210938-7.214844h-13.375c-3.972656 0-7.214844 3.242187-7.214844 7.214844v49.234374c0 3.972657 3.242188 7.214844 7.214844 7.214844h13.375c3.972656 0 7.210938-3.242187 7.210938-7.214844zm0 0" fill="#3f4c63"/><path d="m281.996094 119.113281v-49.230469c0-3.972656-3.238282-7.214843-7.210938-7.214843h-13.375c-3.972656 0-7.214844 3.242187-7.214844 7.214843v49.234376c0 3.96875 3.242188 7.210937 7.214844 7.210937h13.375c3.972656 0 7.210938-3.242187 7.210938-7.214844zm0 0" fill="#3f4c63"/><path d="m330.878906 357.347656c-52.472656 64.710938-122 71.921875-235.273437 45.4375-42.722657-9.988281-95.605469 11.738282-95.605469 11.738282v45.4375c0 11.328124 9.257812 20.585937 20.585938 20.585937h289.679687c11.328125 0 20.613281-9.257813 20.613281-20.585937zm0 0" fill="#bae0f2"/><path d="m49.847656 182.164062v-161.578124c0-11.328126 9.257813-20.585938 20.585938-20.585938h-49.847656c-11.328126 0-20.585938 9.257812-20.585938 20.585938v161.574218h49.847656zm0 0" fill="#b3b3b3"/><path d="m49.847656 401.644531v-219.480469h-49.847656v232.359376s22.398438-9.199219 49.847656-12.878907zm0 0" fill="#b3b3b3"/><path d="m49.847656 401.644531c-27.449218 3.679688-49.847656 12.878907-49.847656 12.878907v45.4375c0 11.328124 9.257812 20.585937 20.585938 20.585937h49.847656c-8.757813 0-16.292969-5.546875-19.273438-13.316406-.847656-2.277344-1.3125-4.730469-1.3125-7.269531zm0 0" fill="#93baf0"/></g><path d="m.00390625 174.441406h330.87109375v15.441406h-330.87109375zm0 0" fill="#888b99"/></svg>